{"title":"Believe S01E04 HDTV x264 AAC [GWC].mp4","uid":9858609,"size":162380202,"categoryP":"video","categoryS":"tv_shows","magnet":"?xt=urn:btih:d75f391f03d916d1932112b23b7d97a268bd27a8&amp;dn=Believe+S01E04+HDTV+x264+AAC+%5BGWC%5D.mp4&amp;tr=udp%3A%2F%2Ftracker.openbittorrent.com%3A80&amp;tr=udp%3A%2F%2Fopen.demonii.com%3A1337&amp;tr=udp%3A%2F%2Ftracker.coppersurfer.tk%3A6969&amp;tr=udp%3A%2F%2Fexodus.desync.com%3A6969","seeders":2,"leechers":0,"uploader":"canc232","files":1,"time":1396257548,"description":"Believe S01E04 HDTV x264 AAC [GWC].mp4\n\n\nSTORYLINE :\nBelieve is about an unlikely relationship between a gifted young girl and a man sprung from prison who has been tasked with protecting her from the evil elements that hunt her power.\n\n\nSCREENS : &lt;a href=&quot;\nhttp://i.imgur.com/sc2TCDC.jpg&quot; rel=&quot;nofollow&quot; target=&quot;_NEW&quot;&gt;\nhttp://i.imgur.com/sc2TCDC.jpg&lt;/a&gt; &lt;a href=&quot;\nhttp://i.imgur.com/VWSrw4J.jpg&quot; rel=&quot;nofollow&quot; target=&quot;_NEW&quot;&gt;\nhttp://i.imgur.com/VWSrw4J.jpg&lt;/a&gt; &lt;a href=&quot;\nhttp://i.imgur.com/tfjqx0V.jpg&quot; rel=&quot;nofollow&quot; target=&quot;_NEW&quot;&gt;\nhttp://i.imgur.com/tfjqx0V.jpg&lt;/a&gt;\n\n\nMEDIA INFO :\nGeneral \nFormat : MPEG-4 \nFormat profile : Base Media \nFile size : 155 MiB \nDuration : 42mn 10s \nOverall bit rate mode : Variable \nOverall bit rate : 513 Kbps \n\nVideo \nFormat : AVC \nFormat profile : &lt;a class=&quot;__cf_email__&quot; href=&quot;/cdn-cgi/l/email-protection&quot; data-cfemail=&quot;125a7b757a525e213c22&quot;&gt;[email&amp;#160;protected]&lt;/a&gt;&lt;script cf-hash='f9e31' type=&quot;text/javascript&quot;&gt;\n/* &lt;![CDATA[ */!function(){try{var t=&quot;currentScript&quot;in document?document.currentScript:function(){for(var t=document.getElementsByTagName(&quot;script&quot;),e=t.length;e--;)if(t[e].getAttribute(&quot;cf-hash&quot;))return t[e]}();if(t&amp;&amp;t.previousSibling){var e,r,n,i,c=t.previousSibling,a=c.getAttribute(&quot;data-cfemail&quot;);if(a){for(e=&quot;&quot;,r=parseInt(a.substr(0,2),16),n=2;a.length-n;n+=2)i=parseInt(a.substr(n,2),16)^r,e+=String.fromCharCode(i);e=document.createTextNode(e),c.parentNode.replaceChild(e,c)}}}catch(u){}}();/* ]]&gt; */&lt;/script&gt; \nFormat settings, CABAC : Yes \nFormat settings, ReFrames : 4 frames  \nDuration : 42mn 10s \nBit rate : 450 Kbps \nMaximum bit rate : 1 889 Kbps \nWidth : 720 pixels \nHeight : 404 pixels \nDisplay aspect ratio : 16:9 \nFrame rate : 23.976 fps \nStream size : 136 MiB (88%) \nTitle : Believe S01E04 HDTV x264 AAC [GWC] \nWriting library : x264 core\n\nAudio \nFormat : AAC \nFormat profile : HE-AAC / LC \nDuration : 42mn 10s \nBit rate mode : Variable \nChannel(s) : 2 channels \nSampling rate : 48.0 KHz / 24.0 KHz \nStream size : 18.1 MiB (12%) \nLanguage : English \n","torrent":{"xt":"urn:btih:d75f391f03d916d1932112b23b7d97a268bd27a8","amp;dn":"Believe+S01E04+HDTV+x264+AAC+%5BGWC%5D.mp4","amp;tr":["udp%3A%2F%2Ftracker.openbittorrent.com%3A80","udp%3A%2F%2Fopen.demonii.com%3A1337","udp%3A%2F%2Ftracker.coppersurfer.tk%3A6969","udp%3A%2F%2Fexodus.desync.com%3A6969"],"infoHash":"d75f391f03d916d1932112b23b7d97a268bd27a8","infoHashBuffer":{"type":"Buffer","data":[215,95,57,31,3,217,22,209,147,33,18,178,59,125,151,162,104,189,39,168]},"announce":[],"urlList":[]}}